<svg width="28" height="28" viewBox="0 0 28 28" fill="none" xmlns="http://www.w3.org/2000/svg">
<path d="M23.3333 14.3193C23.3333 14.7623 23.0041 15.1284 22.577 15.1863L22.4583 15.1943L4.95825 15.1943C4.475 15.1943 4.08325 14.8026 4.08325 14.3193C4.08325 13.8764 4.41243 13.5103 4.83952 13.4523L4.95825 13.4443L22.4583 13.4443C22.9415 13.4443 23.3333 13.8361 23.3333 14.3193Z" fill="white"/>
<path d="M12.6338 20.7281C12.9762 21.0691 12.9774 21.6231 12.6365 21.9656C12.3265 22.2769 11.8404 22.3062 11.4974 22.0527L11.399 21.9682L4.3407 14.9402C4.02846 14.6293 4.00005 14.1415 4.2555 13.7984L4.34065 13.7002L11.399 6.67102C11.7414 6.33002 12.2954 6.33116 12.6364 6.67358C12.9464 6.98487 12.9737 7.47103 12.7188 7.81305L12.6339 7.91101L6.19848 14.3205L12.6338 20.7281Z" fill="white"/>
</svg>
