<svg width="24" height="25" viewBox="0 0 24 25" fill="none" xmlns="http://www.w3.org/2000/svg">
<g clip-path="url(#clip0_29_17492)">
<path d="M12 0.5C5.3724 0.5 0 5.8724 0 12.5C0 19.1276 5.3724 24.5 12 24.5C18.6276 24.5 24 19.1276 24 12.5C24 5.8724 18.6276 0.5 12 0.5Z" fill="url(#paint0_linear_29_17492)"/>
<path d="M13.7285 17.3573H16.9851L17.4966 14.0492H13.7285V12.2409C13.7285 10.8668 14.1778 9.64813 15.4632 9.64813H17.5287V6.7615C17.1657 6.71243 16.3981 6.60547 14.9479 6.60547C11.9191 6.60547 10.1435 8.20481 10.1435 11.849V14.0498H7.02979V17.358H10.1429V26.4507C10.7595 26.5426 11.3843 26.6055 12.0254 26.6055C12.6048 26.6055 13.1705 26.5526 13.7285 26.4771V17.3573Z" fill="white"/>
</g>
<defs>
<linearGradient id="paint0_linear_29_17492" x1="3.5958" y1="4.0958" x2="21.969" y2="22.469" gradientUnits="userSpaceOnUse">
<stop stop-color="#2AA4F4"/>
<stop offset="1" stop-color="#007AD9"/>
</linearGradient>
<clipPath id="clip0_29_17492">
<rect width="24" height="24" fill="white" transform="translate(0 0.5)"/>
</clipPath>
</defs>
</svg>
