<svg width="25" height="25" viewBox="0 0 25 25" fill="none" xmlns="http://www.w3.org/2000/svg">
<g clip-path="url(#clip0_29_10811)">
<path d="M17.273 0.512011C17.222 0.455011 15.3845 0.534511 13.7855 2.27001C12.1865 4.00401 12.4325 5.99301 12.4685 6.04401C12.5045 6.09501 14.7485 6.17451 16.181 4.15701C17.6135 2.13951 17.324 0.570511 17.273 0.512011ZM22.244 18.1115C22.172 17.9675 18.7565 16.2605 19.0745 12.9785C19.3925 9.69501 21.587 8.79501 21.6215 8.69751C21.656 8.60001 20.726 7.51251 19.7405 6.96201C19.0169 6.57389 18.2161 6.35152 17.396 6.31101C17.234 6.30651 16.6715 6.16851 15.515 6.48501C14.753 6.69351 13.0355 7.36851 12.563 7.39551C12.089 7.42251 10.679 6.61251 9.16251 6.39801C8.19201 6.21051 7.16301 6.59451 6.42651 6.89001C5.69151 7.18401 4.29351 8.02101 3.31551 10.2455C2.33751 12.4685 2.84901 15.9905 3.21501 17.0855C3.58101 18.179 4.15251 19.9715 5.12451 21.2795C5.98851 22.7555 7.13451 23.78 7.61301 24.128C8.09151 24.476 9.44151 24.707 10.3775 24.2285C11.1305 23.7665 12.4895 23.501 13.0265 23.5205C13.562 23.54 14.618 23.7515 15.6995 24.329C16.556 24.6245 17.366 24.5015 18.1775 24.1715C18.989 23.84 20.1635 22.583 21.5345 20.0345C22.055 18.8495 22.292 18.209 22.244 18.1115Z" fill="white"/>
<path d="M17.273 0.512011C17.222 0.455011 15.3845 0.534511 13.7855 2.27001C12.1865 4.00401 12.4325 5.99301 12.4685 6.04401C12.5045 6.09501 14.7485 6.17451 16.181 4.15701C17.6135 2.13951 17.324 0.570511 17.273 0.512011ZM22.244 18.1115C22.172 17.9675 18.7565 16.2605 19.0745 12.9785C19.3925 9.69501 21.587 8.79501 21.6215 8.69751C21.656 8.60001 20.726 7.51251 19.7405 6.96201C19.0169 6.57389 18.2161 6.35152 17.396 6.31101C17.234 6.30651 16.6715 6.16851 15.515 6.48501C14.753 6.69351 13.0355 7.36851 12.563 7.39551C12.089 7.42251 10.679 6.61251 9.16251 6.39801C8.19201 6.21051 7.16301 6.59451 6.42651 6.89001C5.69151 7.18401 4.29351 8.02101 3.31551 10.2455C2.33751 12.4685 2.84901 15.9905 3.21501 17.0855C3.58101 18.179 4.15251 19.9715 5.12451 21.2795C5.98851 22.7555 7.13451 23.78 7.61301 24.128C8.09151 24.476 9.44151 24.707 10.3775 24.2285C11.1305 23.7665 12.4895 23.501 13.0265 23.5205C13.562 23.54 14.618 23.7515 15.6995 24.329C16.556 24.6245 17.366 24.5015 18.1775 24.1715C18.989 23.84 20.1635 22.583 21.5345 20.0345C22.055 18.8495 22.292 18.209 22.244 18.1115Z" fill="white"/>
</g>
<defs>
<clipPath id="clip0_29_10811">
<rect width="24" height="24" fill="white" transform="translate(0.5 0.5)"/>
</clipPath>
</defs>
</svg>
