<svg width="307" height="260" viewBox="0 0 307 260" fill="none" xmlns="http://www.w3.org/2000/svg">
<g clip-path="url(#clip0_563_109840)">
<path d="M296.256 108.849C280.903 128.452 251.933 132.941 227.964 126.113C220.12 123.825 212.554 120.68 205.401 116.735C201.247 114.483 197.192 112.012 193.219 109.379C192.242 108.734 191.265 108.079 190.297 107.41C189.638 106.96 188.981 106.505 188.326 106.044C180.123 100.282 172.241 93.9604 164.492 87.6754C145.147 71.9859 125.272 55.8135 101.503 48.3277C96.6068 46.7862 90.2722 46.0651 87.244 50.2066C84.6168 53.8023 86.2203 58.8932 88.4434 62.7502C96.6897 77.0371 111.658 86.0578 126.64 92.9945C141.621 99.9312 157.491 105.551 170.515 115.693C183.538 125.835 193.481 141.955 190.817 158.227C188.521 172.249 177.055 183.641 163.723 188.606C150.391 193.568 135.522 192.877 121.664 189.655C107.805 186.43 94.6488 180.803 81.2738 175.954C73.2099 173.026 62.6677 171.002 57.317 177.7C52.7981 183.36 55.3955 192.288 60.8984 196.999C66.4014 201.709 73.8493 203.287 80.9558 204.703C103.021 209.102 125.086 213.501 147.151 217.898C153.92 219.244 160.847 220.654 166.744 224.239C172.642 227.822 177.399 234.08 177.23 240.971C177.061 247.762 172.082 253.762 165.979 256.769C159.88 259.773 152.836 260.236 146.041 259.912C120.577 258.694 47.5733 218.302 30.0637 213.138C18.8125 209.823 6.51115 204.954 1.76673 194.243C-4.1405 180.909 5.58016 164.776 18.849 158.686C32.1145 152.593 47.4938 153.943 61.952 155.994C76.4103 158.045 91.3455 160.655 105.42 156.758C119.493 152.861 132.388 140.159 131 125.644C129.79 113.014 118.397 103.497 106.407 99.3027C97.021 96.0179 87.0353 95.1248 77.1757 93.6461C74.439 93.2393 71.7124 92.7828 69.0122 92.2204C62.0971 90.7739 55.3518 88.6121 48.8853 85.77C42.0996 82.7939 35.653 79.0999 29.6562 74.7513C24.8732 71.288 20.4034 67.4128 16.298 63.1703C15.6718 62.522 15.0522 61.8593 14.4393 61.1823C13.8562 60.5339 13.2797 59.8723 12.7166 59.1975C5.388 50.4547 -0.0256696 39.6875 1.59786 28.5927C3.21784 17.5278 11.8551 8.31522 22.1389 3.88923C28.0825 1.33221 34.4934 0.187672 40.9836 0.0222767C45.7293 -0.0724217 50.4737 0.268626 55.1569 1.04111C76.8277 4.50119 96.6863 15.0138 115.442 26.3963C134.194 37.7788 152.468 50.2728 172.854 58.3871C193.239 66.5047 216.444 69.9417 237.124 62.6014C257.804 55.2644 274.794 35.2449 273.783 13.3565C287.499 25.1492 299.155 39.972 304.317 57.2922C309.478 74.6124 307.404 94.612 296.256 108.849Z" fill="#2A2B39"/>
<path d="M150.053 251.946C150.831 251.946 151.461 251.316 151.461 250.539C151.461 249.763 150.831 249.133 150.053 249.133C149.274 249.133 148.644 249.763 148.644 250.539C148.644 251.316 149.274 251.946 150.053 251.946Z" fill="#F5F5F5"/>
<path d="M129.843 232.429C130.621 232.429 131.251 231.799 131.251 231.023C131.251 230.246 130.621 229.616 129.843 229.616C129.065 229.616 128.434 230.246 128.434 231.023C128.434 231.799 129.065 232.429 129.843 232.429Z" fill="#F5F5F5"/>
<path d="M149.757 229.594L155.583 229.593L158.355 207.153L149.756 207.154L149.757 229.594Z" fill="#FFB6B6"/>
<path d="M148.27 227.694L149.91 227.694L156.313 225.094L159.745 227.693H159.746C161.685 227.693 163.545 228.463 164.917 229.832C166.288 231.201 167.058 233.058 167.059 234.995V235.232L148.271 235.233L148.27 227.694Z" fill="#2A2B39"/>
<path d="M106.12 229.594L100.294 229.593L97.5215 207.153L106.121 207.154L106.12 229.594Z" fill="#FFB6B6"/>
<path d="M107.607 235.233L88.8186 235.232V234.995C88.8187 233.058 89.5892 231.201 90.9606 229.832C92.332 228.463 94.192 227.693 96.1314 227.693H96.1319L99.5637 225.094L105.967 227.694L107.607 227.694L107.607 235.233Z" fill="#2A2B39"/>
<path d="M25.1497 196.373C25.9277 196.373 26.5584 195.743 26.5584 194.966C26.5584 194.189 25.9277 193.56 25.1497 193.56C24.3717 193.56 23.741 194.189 23.741 194.966C23.741 195.743 24.3717 196.373 25.1497 196.373Z" fill="#F5F5F5"/>
<path opacity="0.3" d="M65.6265 209.877L20.595 172.421L64.3424 211.377C64.4271 211.519 64.5446 211.64 64.6852 211.728C64.8258 211.816 64.9853 211.869 65.1507 211.883C65.316 211.898 65.4824 211.872 65.6359 211.809C65.7895 211.746 65.9258 211.648 66.0336 211.522C66.1415 211.396 66.2177 211.246 66.2559 211.085C66.2941 210.924 66.2933 210.756 66.2535 210.595C66.2137 210.434 66.1361 210.285 66.027 210.16C65.918 210.035 65.7807 209.938 65.6265 209.877H65.6265Z" fill="#F5F5F5"/>
<path d="M38.0708 170.54C38.8315 170.54 39.4482 169.924 39.4482 169.164C39.4482 168.405 38.8315 167.789 38.0708 167.789C37.31 167.789 36.6934 168.405 36.6934 169.164C36.6934 169.924 37.31 170.54 38.0708 170.54Z" fill="#FF6584"/>
<path d="M94.3931 170.241C95.1711 170.241 95.8018 169.611 95.8018 168.834C95.8018 168.057 95.1711 167.428 94.3931 167.428C93.6151 167.428 92.9844 168.057 92.9844 168.834C92.9844 169.611 93.6151 170.241 94.3931 170.241Z" fill="#F5F5F5"/>
<path d="M183.183 165.279C183.961 165.279 184.592 164.649 184.592 163.872C184.592 163.096 183.961 162.466 183.183 162.466C182.405 162.466 181.775 163.096 181.775 163.872C181.775 164.649 182.405 165.279 183.183 165.279Z" fill="#F5F5F5"/>
<path d="M172.582 140.8C173.36 140.8 173.99 140.171 173.99 139.394C173.99 138.617 173.36 137.987 172.582 137.987C171.804 137.987 171.173 138.617 171.173 139.394C171.173 140.171 171.804 140.8 172.582 140.8Z" fill="#F5F5F5"/>
<path d="M104.944 126.916L103.015 176.509C103.015 176.509 94.6862 213.137 96.1329 214.1C97.5796 215.063 98.1925 220.805 98.1925 220.805L106.39 221.768C106.39 221.768 106.39 217.916 108.319 216.472C110.248 215.027 128.091 147.138 128.091 147.138L145.498 212.777C145.498 212.777 145.933 216.472 147.38 216.472C148.827 216.472 149.309 221.768 149.309 221.768H157.507V216.472C157.507 216.472 161.191 215.306 159.744 211.454C158.297 207.602 151.72 126.916 151.72 126.916H104.944Z" fill="#2A2B39"/>
<path opacity="0.3" d="M282.444 105.601C279.369 106.507 272.59 107.175 265.136 107.585C257.685 107.992 249.512 108.171 241.441 108.343C227.314 108.647 213.188 108.953 199.063 109.259C197.122 109.302 195.174 109.342 193.219 109.378C192.242 108.733 191.265 108.078 190.297 107.41C192.03 107.42 193.763 107.41 195.482 107.377C202.827 107.231 209.046 106.659 216.129 106.388C227.029 105.968 238.797 106.299 250.158 106.467C261.518 106.639 274.462 106.576 282.444 105.601Z" fill="#F5F5F5"/>
<path d="M197.429 86.2279C198.761 86.2279 199.841 85.1501 199.841 83.8205C199.841 82.4909 198.761 81.4131 197.429 81.4131C196.098 81.4131 195.018 82.4909 195.018 83.8205C195.018 85.1501 196.098 86.2279 197.429 86.2279Z" fill="#FF4D67"/>
<path d="M77.6063 90.1064C77.6071 91.2993 77.4625 92.4879 77.1756 93.6459C74.439 93.239 71.7123 92.7825 69.0122 92.2202C62.0971 90.7736 55.3517 88.6118 48.8853 85.7697C49.9251 82.4175 52.1344 79.5487 55.112 77.684C58.0896 75.8194 61.6381 75.0826 65.1134 75.6073C68.5887 76.1321 71.7604 77.8836 74.0526 80.5439C76.3448 83.2043 77.6057 86.5971 77.6063 90.1064Z" fill="#FF6584"/>
<path d="M258.721 77.6187C259.499 77.6187 260.13 76.989 260.13 76.2122C260.13 75.4354 259.499 74.8057 258.721 74.8057C257.943 74.8057 257.313 75.4354 257.313 76.2122C257.313 76.989 257.943 77.6187 258.721 77.6187Z" fill="#F5F5F5"/>
<path d="M282.576 55.7869C284.634 55.7869 286.303 54.1205 286.303 52.0648C286.303 50.0092 284.634 48.3428 282.576 48.3428C280.517 48.3428 278.848 50.0092 278.848 52.0648C278.848 54.1205 280.517 55.7869 282.576 55.7869Z" fill="#FF6584"/>
<path d="M87.4356 30.646C88.2136 30.646 88.8443 30.0163 88.8443 29.2395C88.8443 28.4627 88.2136 27.833 87.4356 27.833C86.6576 27.833 86.0269 28.4627 86.0269 29.2395C86.0269 30.0163 86.6576 30.646 87.4356 30.646Z" fill="#F5F5F5"/>
<path d="M56.2039 33.7291C56.2143 40.8308 54.5336 47.8332 51.3006 54.1588C50.8732 54.9924 50.4204 55.8116 49.9422 56.6166C45.2078 64.5994 38.1243 70.9314 29.6563 74.7506C24.8733 71.2872 20.4035 67.4121 16.2981 63.1696C15.6718 62.5212 15.0523 61.8585 14.4393 61.1815C13.8563 60.5332 13.2797 59.8716 12.7166 59.1968C5.38805 50.4539 -0.0256159 39.6867 1.59792 28.5919C3.21789 17.527 11.8552 8.31441 22.139 3.88842C28.0826 1.3314 34.4934 0.18688 40.9837 0.0214844C46.0584 4.49612 50.059 10.0541 52.6888 16.2832C53.0201 17.0672 53.3249 17.8611 53.6131 18.6649C55.3326 23.5016 56.2088 28.5968 56.2039 33.7291Z" fill="#FF4D67"/>
<path d="M31.4446 68.026C32.2226 68.026 32.8533 67.3962 32.8533 66.6194C32.8533 65.8426 32.2226 65.2129 31.4446 65.2129C30.6666 65.2129 30.0359 65.8426 30.0359 66.6194C30.0359 67.3962 30.6666 68.026 31.4446 68.026Z" fill="#F5F5F5"/>
<path d="M126.999 57.6201L121.099 62.1057L105.426 66.2498C105.426 66.2498 111.042 105.601 108.391 108.247C105.741 110.894 108.131 110.965 107.599 114.402C107.066 117.84 104.944 126.916 104.944 126.916H151.72C151.72 126.916 152.097 121.276 149.792 120.054C147.486 118.832 151.917 113.131 150.033 112.178C148.148 111.224 150.799 102.955 150.799 102.955L156.543 75.8794L141.265 63.9445L138.941 58.355L126.999 57.6201Z" fill="#FF4D67"/>
<path d="M134.36 92.7833C135.488 92.7833 136.401 91.8708 136.401 90.7452C136.401 89.6195 135.488 88.707 134.36 88.707C133.233 88.707 132.319 89.6195 132.319 90.7452C132.319 91.8708 133.233 92.7833 134.36 92.7833Z" fill="#F5F5F5"/>
<path opacity="0.1" d="M150.032 89.1195L151.961 90.5641L152.926 83.8232L150.032 89.1195Z" fill="black"/>
<path d="M106.351 66.2112C106.351 66.2112 103.939 65.7297 102.493 70.0631C101.046 74.3964 95.7415 90.7668 95.7415 93.6557C95.7415 96.5445 128.776 109.291 128.776 109.291L125.339 97.2516L110.208 89.3223L106.351 66.2112Z" fill="#FF4D67"/>
<path d="M130.309 107.506C133.419 107.506 135.941 104.988 135.941 101.882C135.941 98.7765 133.419 96.2588 130.309 96.2588C127.198 96.2588 124.676 98.7765 124.676 101.882C124.676 104.988 127.198 107.506 130.309 107.506Z" fill="#FFB6B6"/>
<path opacity="0.1" d="M109.502 101.357L125.67 108.498L109.052 105.255L109.502 101.357Z" fill="black"/>
<path opacity="0.1" d="M109.767 83.3584L110.208 89.3222L124.2 96.6545L111.755 88.3203L109.767 83.3584Z" fill="black"/>
<path d="M143.403 84.2091H143.221V79.2445C143.221 78.8671 143.147 78.4935 143.002 78.1449C142.858 77.7963 142.646 77.4795 142.378 77.2127C142.111 76.9459 141.794 76.7342 141.445 76.5898C141.096 76.4454 140.721 76.3711 140.343 76.3711H129.809C129.431 76.3711 129.057 76.4454 128.707 76.5898C128.358 76.7342 128.041 76.9459 127.774 77.2127C127.507 77.4795 127.295 77.7963 127.15 78.1449C127.005 78.4935 126.931 78.8671 126.931 79.2445V106.481C126.931 106.858 127.005 107.232 127.15 107.58C127.295 107.929 127.507 108.246 127.774 108.512C128.041 108.779 128.358 108.991 128.707 109.135C129.057 109.28 129.431 109.354 129.809 109.354H140.343C140.721 109.354 141.095 109.28 141.445 109.135C141.794 108.991 142.111 108.779 142.378 108.512C142.646 108.246 142.858 107.929 143.002 107.58C143.147 107.232 143.221 106.858 143.221 106.481V87.743H143.403V84.2091Z" fill="#F5F5F5"/>
<path d="M135.205 88.5101C136.537 88.5101 137.616 87.4323 137.616 86.1027C137.616 84.7731 136.537 83.6953 135.205 83.6953C133.873 83.6953 132.794 84.7731 132.794 86.1027C132.794 87.4323 133.873 88.5101 135.205 88.5101Z" fill="#FF4D67"/>
<path d="M156.543 75.8789C156.543 75.8789 157.989 76.8419 158.954 81.1752C159.918 85.5085 166.187 101.879 163.776 105.731C161.365 109.583 160.653 113.694 152.455 107.916L141.111 97.5456L149.309 89.8419L152.685 92.2493L156.543 75.8789Z" fill="#FF4D67"/>
<path d="M142.185 96.9998C145.295 96.9998 147.817 94.4821 147.817 91.3764C147.817 88.2706 145.295 85.7529 142.185 85.7529C139.074 85.7529 136.552 88.2706 136.552 91.3764C136.552 94.4821 139.074 96.9998 142.185 96.9998Z" fill="#FFB6B6"/>
<path d="M133.125 54.6646C138.585 54.6646 143.011 50.2454 143.011 44.7942C143.011 39.3429 138.585 34.9238 133.125 34.9238C127.665 34.9238 123.239 39.3429 123.239 44.7942C123.239 50.2454 127.665 54.6646 133.125 54.6646Z" fill="#FFB6B6"/>
<path d="M123.151 46.7617L121.794 41.6041C121.44 40.2583 121.083 38.8854 121.162 37.4962C121.242 36.107 121.832 34.6735 123.004 33.921C124.176 33.1684 125.966 33.3462 126.72 34.5162C126.863 32.648 128.566 31.2109 130.372 30.7019C132.178 30.1928 134.095 30.3941 135.97 30.48C137.844 30.5659 139.823 30.5059 141.441 29.5566C141.564 29.926 141.556 30.3265 141.418 30.6906C141.28 31.0547 141.02 31.36 140.683 31.555C141.085 31.6646 141.514 31.6176 141.883 31.4234C142.251 31.2292 142.532 30.9024 142.669 30.5091C142.681 31.591 142.281 32.6371 141.549 33.435C142.247 33.0892 143.049 33.0151 143.799 33.2271C144.549 33.4391 145.193 33.9221 145.606 34.5821C146.432 36.0113 145.969 37.8063 145.486 39.3842L143.007 47.4828C142.63 46.2517 142.56 44.9519 142.358 43.6806C142.157 42.4093 141.799 41.111 140.959 40.1351C140.118 39.1593 138.691 38.5941 137.496 39.0787C136.826 39.3505 136.315 39.902 135.71 40.2979C134.469 41.11 132.89 41.2265 131.416 41.0612C129.941 40.896 128.504 40.4767 127.029 40.3092C126.106 40.2043 125.076 40.2321 124.379 40.8461C123.9 41.3431 123.584 41.9738 123.472 42.6546C123.143 44.0115 123.014 45.4089 123.088 46.8029" fill="#2A2B39"/>
<path d="M76.7449 36.0447C76.7449 42.9351 70.0062 49.326 57.7677 54.0464C55.3193 54.9924 52.6986 55.8492 49.9422 56.6166C39.6252 59.4879 27.347 61.079 14.4393 61.1815C13.8562 60.5332 13.2797 59.8716 12.7166 59.1968C12.8557 59.2001 12.9948 59.2001 13.1339 59.2001C27.1516 59.2001 40.4503 57.427 51.3006 54.1588C53.3049 53.5535 55.2266 52.8985 57.052 52.1939C68.3032 47.8572 74.7571 41.9692 74.7571 36.0447C74.7571 30.1202 68.3032 24.2354 57.052 19.8954C55.9389 19.4654 54.7926 19.0552 53.6131 18.6649C53.3248 17.8611 53.0201 17.0672 52.6887 16.2832C54.4512 16.8323 56.1442 17.4189 57.7677 18.043C70.0062 22.7634 76.7449 29.1576 76.7449 36.0447Z" fill="#E0E0E0"/>
<path d="M29.4568 46.8867C37.0226 46.8867 43.1559 40.763 43.1559 33.209C43.1559 25.655 37.0226 19.5312 29.4568 19.5312C21.8911 19.5312 15.7578 25.655 15.7578 33.209C15.7578 40.763 21.8911 46.8867 29.4568 46.8867Z" fill="#F5F5F5"/>
<path d="M44.6968 20.3921C45.4748 20.3921 46.1055 19.7624 46.1055 18.9856C46.1055 18.2088 45.4748 17.5791 44.6968 17.5791C43.9188 17.5791 43.2881 18.2088 43.2881 18.9856C43.2881 19.7624 43.9188 20.3921 44.6968 20.3921Z" fill="#F5F5F5"/>
<path d="M15.2105 11.4605C15.9885 11.4605 16.6192 10.8308 16.6192 10.054C16.6192 9.27718 15.9885 8.64746 15.2105 8.64746C14.4325 8.64746 13.8018 9.27718 13.8018 10.054C13.8018 10.8308 14.4325 11.4605 15.2105 11.4605Z" fill="#F5F5F5"/>
</g>
<defs>
<clipPath id="clip0_563_109840">
<rect width="307" height="260" fill="white"/>
</clipPath>
</defs>
</svg>
