<svg width="24" height="25" viewBox="0 0 24 25" fill="none" xmlns="http://www.w3.org/2000/svg">
<g clip-path="url(#clip0_29_17761)">
<path d="M23.5078 12.7242C23.5078 11.7409 23.4295 11.0234 23.2598 10.2793H12.2295V14.7173H18.7041C18.5736 15.8202 17.8687 17.4811 16.3022 18.5972L16.2802 18.7458L19.7678 21.496L20.0095 21.5205C22.2285 19.4344 23.5078 16.3649 23.5078 12.7242Z" fill="#4285F4"/>
<path d="M12.2295 24.4178C15.4015 24.4178 18.0644 23.3548 20.0095 21.5211L16.3022 18.5978C15.3101 19.3021 13.9786 19.7937 12.2295 19.7937C9.12274 19.7937 6.48592 17.7076 5.54596 14.8242L5.40819 14.8361L1.78174 17.693L1.73431 17.8272C3.66624 21.7337 7.63456 24.4178 12.2295 24.4178Z" fill="#34A853"/>
<path d="M5.54609 14.8238C5.29808 14.0797 5.15454 13.2824 5.15454 12.4586C5.15454 11.6347 5.29808 10.8375 5.53304 10.0934L5.52647 9.93494L1.85458 7.03223L1.73444 7.09039C0.938206 8.71149 0.481323 10.5319 0.481323 12.4586C0.481323 14.3853 0.938206 16.2056 1.73444 17.8267L5.54609 14.8238Z" fill="#FBBC05"/>
<path d="M12.2295 5.12403C14.4355 5.12403 15.9236 6.09401 16.7721 6.90461L20.0877 3.60928C18.0514 1.6826 15.4015 0.5 12.2295 0.5C7.63455 0.5 3.66623 3.18406 1.73431 7.09056L5.53291 10.0936C6.48591 7.2102 9.12273 5.12403 12.2295 5.12403Z" fill="#EB4335"/>
</g>
<defs>
<clipPath id="clip0_29_17761">
<rect width="23.04" height="24" fill="white" transform="translate(0.47998 0.5)"/>
</clipPath>
</defs>
</svg>
